<svg width="12" height="9" viewBox="0 0 12 9" fill="none" xmlns="http://www.w3.org/2000/svg">
<path d="M10.4688 0.75H1.53125C0.951172 0.75 0.5 1.22266 0.5 1.78125V7.96875C0.5 8.54883 0.951172 9 1.53125 9H10.4688C11.0273 9 11.5 8.54883 11.5 7.96875V1.78125C11.5 1.22266 11.0273 0.75 10.4688 0.75ZM10.4688 1.78125V2.66211C9.97461 3.07031 9.20117 3.67188 7.56836 4.96094C7.20312 5.24023 6.49414 5.92773 6 5.90625C5.48438 5.92773 4.77539 5.24023 4.41016 4.96094C2.77734 3.67188 2.00391 3.07031 1.53125 2.66211V1.78125H10.4688ZM1.53125 7.96875V3.99414C2.00391 4.38086 2.71289 4.93945 3.76562 5.77734C4.23828 6.14258 5.07617 6.95898 6 6.9375C6.90234 6.95898 7.71875 6.14258 8.21289 5.77734C9.26562 4.93945 9.97461 4.38086 10.4688 3.99414V7.96875H1.53125Z" fill="#2C3E50"/>
</svg>
